<?xml version="1.0" encoding="utf-8"?>
<!-- Generator: Adobe Illustrator 24.1.2, SVG Export Plug-In . SVG Version: 6.00 Build 0)  -->
<svg version="1.1"
	 id="svg8" inkscape:export-filename="/Users/mkraemer/code/vert-x3/vertx-web-site/src/site/assets/favicons/vertx-favicon-6.png" inkscape:export-xdpi="322.60999" inkscape:export-ydpi="322.60999" inkscape:version="0.91+devel r14718" sodipodi:docname="vertx-favicon-6.svg" xmlns:cc="http://creativecommons.org/ns#" xmlns:dc="http://purl.org/dc/elements/1.1/" xmlns:inkscape="http://www.inkscape.org/namespaces/inkscape" xmlns:rdf="http://www.w3.org/1999/02/22-rdf-syntax-ns#" xmlns:sodipodi="http://sodipodi.sourceforge.net/DTD/sodipodi-0.dtd" xmlns:svg="http://www.w3.org/2000/svg"
	 xmlns="http://www.w3.org/2000/svg" xmlns:xlink="http://www.w3.org/1999/xlink" x="0px" y="0px" viewBox="0 0 114.3 114.3"
	 style="enable-background:new 0 0 114.3 114.3;" xml:space="preserve">
<style type="text/css">
	.st0{fill:#782A90;stroke:#782A90;stroke-width:5.383;stroke-linejoin:round;stroke-miterlimit:11.3386;}
	.st1{fill-rule:evenodd;clip-rule:evenodd;fill:#FFFFFF;}
	.st2{fill:#FFFFFF;stroke:#782A90;stroke-width:6.3269;stroke-linejoin:round;stroke-miterlimit:11.3386;}
	.st3{fill:#FFFFFF;}
</style>
<path id="rect4446" class="st0" d="M15.9,2.7h82.4c7.3,0,13.3,5.1,13.3,11.3v86.3c0,6.2-5.9,11.3-13.3,11.3H15.9
	c-7.3,0-13.3-5.1-13.3-11.3V14C2.7,7.7,8.6,2.7,15.9,2.7z"/>
<path id="path4436" inkscape:connector-curvature="0" sodipodi:nodetypes="cccccccc" class="st1" d="M-6.7,20.8h18.6l18.4,42.4
	l19.2-41.9h17.8L35.1,92.1H24.9L-6.7,20.8z"/>
<circle id="circle4442" class="st2" cx="42.5" cy="91.8" r="13.2"/>
<g>
	<polygon class="st3" points="100.2,61.8 89.6,77.9 97.2,91.6 119.1,91.6 	"/>
	<path class="st3" d="M96.3,21.3L84.1,40.3L73.7,21.3H52.1L74,56.1L56.8,83.3c1.5,2.4,2.3,5.3,2.4,8.3H72L118,21.3H96.3z"/>
</g>
</svg>
